Coordinates
version=1
nRows=8
nColumns=40
inDegrees=yes

Units are S.I. units (second, meters, Newtons, ...)
Angles are in degrees.

endheader
time	pelvis_tilt	pelvis_list	pelvis_rotation	pelvis_tx	pelvis_ty	pelvis_tz	hip_flexion_r	hip_adduction_r	hip_rotation_r	knee_angle_r	knee_angle_r_beta	ankle_angle_r	subtalar_angle_r	mtp_angle_r	hip_flexion_l	hip_adduction_l	hip_rotation_l	knee_angle_l	knee_angle_l_beta	ankle_angle_l	subtalar_angle_l	mtp_angle_l	lumbar_extension	lumbar_bending	lumbar_rotation	arm_flex_r	arm_add_r	arm_rot_r	elbow_flex_r	pro_sup_r	wrist_flex_r	wrist_dev_r	arm_flex_l	arm_add_l	arm_rot_l	elbow_flex_l	pro_sup_l	wrist_flex_l	wrist_dev_l
      9.09250000	     -5.53323257	     -4.34256092	     -6.16307198	      1.05803539	      0.92669045	      0.47580007	     18.95094216	      3.12048537	     -4.40539002	     19.70609858	     19.70609858	      8.58286775	      2.00932002	     -3.24323041	      0.65628182	     -9.63860747	    -11.92514585	     16.80534300	     16.80534300	     18.71350724	     -3.88406017	      0.49946084	     -8.44089706	      6.73414656	      0.26315986	    -19.38509314	    -12.86328629	     -3.18190216	     29.49820349	     45.42413976	      0.00000000	      0.00000000	     33.96362005	    -18.19484998	    -12.88199177	     85.61178328	     48.36444033	      0.00000000	      0.00000000
      9.11485714	     -5.75054367	     -4.43221027	     -5.52821567	      1.05882686	      0.92693624	      0.48080877	     18.57773607	      3.43585249	     -4.98980992	     19.36726492	     19.36726492	      8.86251951	      1.99966296	     -3.17538756	      0.78360503	    -10.22216977	    -11.52232853	     16.98581689	     16.98581689	     18.43239719	     -3.59434542	      0.75304425	     -8.29389420	      6.63491835	      0.12799260	    -19.19296315	    -13.03919631	     -3.10777010	     29.50723879	     45.42546700	      0.00000000	      0.00000000	     33.67945413	    -17.79473968	    -12.49656220	     85.42241714	     48.33428011	      0.00000000	      0.00000000
      9.13721429	     -5.94423195	     -4.47155756	     -4.85053582	      1.05926448	      0.92708861	      0.48553645	     18.25667051	      3.62834597	     -5.82960440	     19.12235131	     19.12235131	      9.25814144	      2.33139184	     -2.95114115	      1.10585475	    -10.83422440	    -11.39594006	     17.54837267	     17.54837267	     18.66926511	     -2.69576522	      1.71861131	     -8.17233232	      6.48058090	      0.22186768	    -18.77233159	    -13.21868245	     -2.56051475	     29.05417854	     45.44085168	      0.00000000	      0.00000000	     33.51541331	    -17.59114821	    -10.98337285	     84.49996517	     48.22058478	      0.00000000	      0.00000000
      9.15957143	     -6.02754761	     -4.34989085	     -4.15333604	      1.05947284	      0.92732242	      0.48989847	     17.93630637	      3.67834480	     -6.32600198	     19.02739402	     19.02739402	      9.58334372	      2.07985512	     -2.99568632	      1.28246697	    -11.13867621	    -10.99211419	     17.91198359	     17.91198359	     18.30713757	     -2.49947878	      1.79515167	     -8.27517550	      6.15612733	      0.15475464	    -18.21844530	    -13.37522969	     -2.55920016	     29.20269624	     45.44128323	      0.00000000	      0.00000000	     32.86942982	    -16.97550805	    -10.62452200	     84.21316705	     48.18776412	      0.00000000	      0.00000000
      9.18192857	     -6.29266602	     -4.43871625	     -3.33138911	      1.05919057	      0.92706833	      0.49400911	     17.77922728	      3.91227983	     -7.08441386	     18.82197579	     18.82197579	      9.84907673	      2.01659591	     -2.99459941	      2.29973831	    -11.79567365	    -10.39350411	     19.40655064	     19.40655064	     18.12996412	     -2.61967519	      1.62525380	     -8.13591451	      6.11488436	     -0.08743178	    -17.31271063	    -13.58426142	     -2.46865593	     29.13653964	     45.45325911	      0.00000000	      0.00000000	     32.09274183	    -16.65590637	     -9.85292231	     83.16997436	     48.11375505	      0.00000000	      0.00000000
      9.20428571	     -6.41791842	     -4.30577536	     -2.50633861	      1.05873679	      0.92681888	      0.49780779	     17.73984153	      3.88355454	     -7.61658422	     19.08380352	     19.08380352	     10.35982665	      1.65912400	     -2.90563904	      3.33720721	    -12.18187854	     -9.89432246	     21.18139069	     21.18139069	     17.83373289	     -2.72227907	      1.23555613	     -8.08445734	      5.80864603	     -0.07847493	    -15.88172699	    -13.62791801	     -1.98427526	     27.84294973	     45.51669148	      0.00000000	      0.00000000	     31.60440652	    -16.33083549	     -8.05203711	     80.87174614	     47.95302320	      0.00000000	      0.00000000
      9.22664286	     -6.49147461	     -4.25256257	     -1.62841064	      1.05802739	      0.92640471	      0.50131871	     17.66276633	      3.93116273	     -8.12691013	     19.32777801	     19.32777801	     10.76916172	      1.12788722	     -2.94122871	      4.80227013	    -12.62429709	     -9.05118530	     23.80371491	     23.80371491	     17.39857229	     -3.50479517	      0.50300545	     -8.19084471	      5.62989656	     -0.26040532	    -14.48090383	    -13.74394175	     -1.92091171	     27.80316847	     45.53663620	      0.00000000	      0.00000000	     30.42615700	    -15.74616828	     -7.33230133	     79.50260289	     47.87399803	      0.00000000	      0.00000000
      9.24900000	     -6.42645693	     -4.23561168	     -0.73654547	      1.05713077	      0.92575315	      0.50459315	     17.60865193	      3.99728975	     -8.55324713	     19.86835111	     19.86835111	     11.30305579	      0.39155060	     -3.04326751	      6.60401624	    -13.08020867	     -8.00689553	     27.31708739	     27.31708739	     16.84045239	     -4.71848985	     -0.51099753	     -8.45715920	      5.50530397	     -0.44793049	    -12.73560071	    -13.84977606	     -1.84531333	     27.74940134	     45.55763384	      0.00000000	      0.00000000	     29.18647338	    -15.21374667	     -6.55376871	     77.74119676	     47.78351369	      0.00000000	      0.00000000
